<svg xmlns="http://www.w3.org/2000/svg" viewBox="0 0 140 170">
  <style type="text/css">.cls-0 {fill:#98F5C4;}
.cls-1 {fill:#006538;}</style>
  <rect class="cls-0" width="140" height="170"/>
  <path class="cls-1" d="m136.9 86.1c-3.2-3.3-4.6-4.4-8.9-5.3-2.3-0.4-2.7-0.1-4-2.2-0.2-0.4 1.4-5.2 1.8-9 0.3-2.3-1.9-8.2-2-9.1l-0.2-1.7-3.4-6.1-3.5-3.1c-1.7-1.5-4.8-4.2-7.5-5.4-4.7-1.9-6.5-1.5-9.1-2.1-0.7-0.1-3.8-0.6-5.5 0.1-1.1 0.5-1.9-0.6-2.6-0.3-0.4 0.2-4.3 0.6-7 1.6-1.6 0.5-1.7-0.5-2.5 0.1-1.7 1-8.7 3.1-10.5 4.1l-4.7 2.8-6.1 4.1v-1.1c3.2-4.7 5.1-5.2 5.8-6.5 0.5-0.8 1.7-0.7 3-2.2 2.6-2.9 4.5-2.6 6-4.9l5.5-4.1c1.7-1.1 3.8-3.2 5.7-4 0.5-0.2 3.9-3.5 5.9-4.6 0.7-0.3 1.3-1.6 2.2-2.4l4-4.1c0.7-0.6 0.8-0.7 0.7-0.7 0.9-0.8 0.8-4.5 0-6l-1.3-2.9-3.1-3c-2.1-1-3.1-2.1-6.1-3.1l-8.5-0.4c-0.8-0.1-7.7 2.4-9.5 3-0.7 0.3-3.7 2.5-4.6 3.5l-1.2 0.5-4.8 5c-2.1 2.5-9.7 11.6-13.4 17-0.7 1-3.8 5.5-4.1 7.6-0.4 2.4-3.8 6.5-4 7.8l-0.6 3.2c-0.3 1.5-2.2 4.9-2.5 4.9l-0.1-0.1c-0.1-2.9 1.1-9.8 2.6-11.6 0.4-0.5 2.2-3.7 2.4-4.5 0.3-1 1.2-3 1.7-3.7l7-9.6 2.2-2.8 4.6-5.1 3.1-5.1c1-1.6 0.8-5.2 0.8-7.4l-0.1-0.2-2-3.1c-1.6-0.4-2.8-2.2-3.4-2.3l-5-0.2-5.5 0.9-5.6 3.4-7 6.4c-0.8 0.7-4.6 6.4-5 7l-3.6 7.3c-1.1 1.8-2.3 7.3-2.8 7.4l0.1-0.2-0.1 0.2-0.3 0.1-0.5-0.5c-0.4-1.7-0.3-4.2-0.5-5.8l-0.6-7.8-0.3-0.8-2.2-3.5-1.3-1c-2.4-1.8-2.2-1.6-4.3-1.5-1 0.1-1.6-1-2.5-0.2-1.1 0.4-1.2 1.5-2.5 2.2l-1 0.7-1.6 2.9-0.7 3.9 0.2 7.2 0.2 3.1-0.4 3.6 0.2 1.8 0.6 3.3-0.5 1.9 0.4 1.7c0.3 2 0 3.5 0.7 5l0.1 0.8-0.3 1.6v15.4l0.4 0.7v6.1l0.4 2.4-0.1 3.3 0.4 2.1 0.1 3.6 0.3 1.6-0.1 4.1 0.6 1.6 0.1 1.1-0.1 2.4 0.9 2.7 0.2 2.1v3.3l0.6 2.2 0.1 5.3 0.4 2-0.2 4 0.7 3.6 0.1 5.3 0.3 1.1 0.2 4.9 0.5 2.7 0.2 5 0.5 1.4 0.2 5.5 0.6 6.9 0.5 4.7v4.9l0.3 2.9 0.1 2.6h5.7l-0.1-1.1 1-0.9-1.3-1.9 1.3-1.1-1.3-1.6 1.3-1.7-1.3-1.3v-2.4l-1.3-1.3 0.7-1.5-1.1-1.4 1.2-1.7-1.2-1.6 0.7-1.9-1-1.1v-0.8l0.7-1.3-1.2-1.4 0.8-1.5-1-1.9 0.5-1.8-1.4-1.3 0.8-1.4-1.4-1.5 0.9-1.9-0.9-1.6 1.5-1.5-1.4-1.2v-0.9l0.7-1.4-1.7-1.8 1.1-2.4-1.3-1.3 0.6-2.7-1.5-1.8 1-2.2-0.7-1.4 1.5-2-1.7-2 1.4-1.8-1.8-1.8 1.2-1.7-1.7-1.8 1.5-1.8-1.9-2.1 1.1-1.1 0.2-0.5-1.5-1.7v-0.6l0.8-1.4-1.4-1.7 1.2-1.9-1.1-1.2 0.5-2.3-1.5-1.2 1-2.2-1.3-1.6 1-2.1-1.3-1.3 1.3-1.7-1-1.4 1.4-1.5-1.4-1.6 1.4-1.5-1.3-1.5 1.2-2 0.1-0.5c-0.8-0.8-1.7-0.8-1-2l1-1.3-1.3-1.7v-0.6l1.2-1.9-1.6-1.9 1.6-2-1.6-2.2 1.7-1.8-1.7-1.4 1.3-1.8-1.7-2 1.5-1.4v-0.5l-1.5-1.6 1.4-2-1.5-1.5 1.5-1.9-0.2-1.9c0.4-0.8 1.3-1.5 1.7-1l1.4 1.2 1.7-1.7 0.1-0.6-0.5-1.6 0.7-1.5-0.2-0.8-1.2-1.2 0.1-3.8v-1.7l-1.1-1.2 1.5-0.8 1.7 1.3 0.3 0.7v4.1l0.6 1.7c-1 1.8-0.8 2.5 0.1 3.2l0.7 0.7 0.1 0.8-0.7 1.8 1.3 1.7-0.6 2.1 1.2 1 0.2 0.6-0.7 1.5 0.6 1.6-0.4 1.9 0.7 2.5v4.5l0.7 1.9v5.7l-0.6 1.7 2.3 2.6 3.9-4 0.2-0.6c-0.9-2-0.3-2.4 0.1-4.3l-0.6-1.9 0.4-2.2-0.4-2 0.5-1.6-0.2-2-0.3-0.7c1-1.8 2-1.1 0.9-3.3l-0.4-0.9 0.2-0.6 1.1-1v-0.5l-0.6-2.3 1.1-2.2-0.2-1.9 1.6-1.7-0.2-2.2 1.8-2v-0.5l-0.7-1.6 2.6-3c0-1-0.3-1.8 0.5-2.1l1.9-1 1.2-1.8 0.7-0.5h1.6l0.4 2 1.7 0.3 2 1.6 2.6 0.4 2.3 2 1.4-1.3 0.5-0.1 0.8 0.7v0.3l-2.2 2.7-1-0.5-1.8 1.7 0.4 1.5-0.2 0.5-1.6 1.6-1.5-1.6-0.4 0.2-1.1 1.4 1.2 1.4-0.1 0.7-1 1.1h-0.7l-1.2-0.5-0.5 0.2-1 1.3 1.2 1.7-1.5 1.6-1.8-1.6-0.5 0.2-1 1.1v0.4l1.5 1.6-1.2 1.3-0.6 0.3-2.1-0.9-0.6 0.2-1 1v0.4l1.5 1.8 2.2-0.4c0.7 0 1.9 0.8 2.1 1.6l-1.3 1.9v0.6l1.4 1.1v0.3l-0.9 1.6-1.4-0.5c-1.6 0.1-2.6 1.1-1 2.1v0.5l-1 1.1-0.6 0.2-2.3-0.7-0.5 0.2-0.6 1 0.1 0.7 1.2 1.1-0.5 2.2 1.4 1.6 1.7-1.1 1.4 1.5-1 2.2 2.1 1.9c0.8 0.9 0.7 3.6 1.6 4l2.4 2 0.5 0.1 1.1-0.7 1.5 0.5 1.7-2.4 0.6-1.6 1.9-1-0.6-2.3 2-1.9 0.2-0.6-0.6-1.5 0.2-0.6 1.6-1.3-0.5-2 2-1.7-0.8-1.4 2.2-1.4 0.2-0.7-1-1.4 2.2-2-0.7-1.7 0.1-0.5 1.8-1.3-0.6-1.7 0.3-0.7 1.9-1.5-0.3-1.3 0.3-0.5 2-1.2 0.1-0.6-0.3-1.2 2.2-1.4-0.4-2.1 2.1-1.7-0.5-1.7c0.6-1 4.3-3.9 5.1-4.4 0.8-0.7 3.2-2.5 3.5-2.7 1.1-1 2.5-0.3 2.6 0.6l0.1 1.4h1.9l1.1 0.7 0.7 1-0.8 1.9 2.1-0.1 1.3-1.5h2.3l0.9-0.7 1.5-1.6 1.3 1 0.6-0.2 1.3-1.5 0.7-0.2 1.1 0.8 2-2.3 1.3 0.8 1.8-1.5 0.1-0.5-0.6-1.5 0.3-0.3 2.1-0.5c0.8 0.2 1.6 1.3 1.6 1.4l0.2 2-1 0.6 0.3 1.4-1.8 1.4-1.3-1.4-1.5 0.8-0.2 0.5 0.9 1.5-2.1 2-1.1-1.8-2.1 1.3-0.1 0.5 0.5 1.5c-0.7 0.5-2 1.2-2.4 0.7l-1.1-1.7-2.3 1.5 0.6 2.1-3.6 2.7-1.1-1.5-0.5 0.2-1.4 1.1 1.1 1.9-2.7 2.7-1.1-1.4h-0.5l-1.4 1.4v0.5l1.5 1.6-0.3 0.5-1.8 1.4-1.9-1.2-2 1.3 1.4 1.9-1.6 1.3-2.1-2-1.3 1.3-0.1 0.4 1 1.4-0.4 0.5-1.9 0.7-1.5-1.3-1.9 1.5 1.4 1.6-0.1 0.6-1.3 1.1-1.9-1.1-0.6 0.3-1.2 1.2 1.3 1.6-1.5 1.2-2-0.9-1.3 1 0.7 1.7 2.1-0.5 1 0.8 0.5 0.9-1.4 2.3-1.7-1.6h-0.5l-1.2 1.5 1.5 2.4 1.8-1.4 0.5 0.1 1.1 1.4v0.4l-1.6 2.1-0.8 2.8-1.9 2.5-0.9 1.7-0.6 1.8-2.4 1.5-0.6 0.8-0.4 1.5-0.9 1 1 3.3 2.5 0.7 2.9-2.1 1.3-1.7 3.8-4.4 0.8-0.8 1-1.3c1.2-1.7 3.6-2.9 4-3.5l0.6-1.4 0.8-1 2.4-1.9 0.8-1.6 1.8-0.5 0.8-0.6 1.2-2 0.6-0.3 1 0.8 2.5-2.5 0.5-0.2 1.4 0.7 2.3-2.5 1.5 0.5 2.8-1.9 1.6 0.6 0.5-0.1 2.5-2.3 2.3 0.7 1.8-1.8 2.4 0.8 2.9-1.2 2.9 1 2-0.5c1.4-0.5 3.8 1.2 4.2 1.4l0.5 0.8 0.6 0.1 1.4-0.5c0.9-0.6 2.9 1.4 3 1.9l0.2 1.2 1.8 0.5 1 0.6 2.5 3.2c0.8 0.7 0 2.2-1.6 1.1-0.7-0.4-2.1 1.9-2.4 1.9l-2.7 0.3c-1.6 0.7-4.4 0.4-4 3l1.5 2.4 1.5 0.8 0.5 0.8c1 3.4 0.9 4.7-0.3 4.8-1.2-0.1-5.6-5.4-6.2-5.9l-1-1.7-0.2-0.8 1.5-1.9-1.5-2-0.6-0.1-2 1.4-1.7-1.5-1.7 1.7 1.7 1.8 0.5 0.2 1-0.5 0.8 2.7 1.7 1.2 1.5 1.5 0.8 1.8 3 3.2v1.4l1.8 1.7 0.5 2.3 1.6 1c0.6 0.5 0.9 2.2 0.6 2.9-1.1 0.3-1.3-0.2-3.6-2.5l-1-2.9-6.9-7.4-4-2.1c-1.1-0.5-6.1-2-7.2-2.3l-8.1 1.4-6 4.4-6.8 7-5.5 9.9-0.4 1.1c-0.3 1.9 0.1 4.6-0.5 7.5l1.1 3.6-0.2 1.9 6.1 6.5 8.7 4.4 8.8 0.8 0.7-0.2 3.2-1.8h1.9l3.7-2.3 6-3.3 0.5-0.4 4.4-4.2 2-1 0.4-0.6 0.4-1.5 1.2-1c1.8-0.5 0.4-1.9 1.5-2.8l6.9-6.7 0.7-0.5c0.4-0.5 2 1 2.4 2l1.8-1.5-0.2-1.4 1.9-0.9 0.8 0.3 1.2 0.8v0.7l-0.1 1.1 1.6 0.9-2.5 2.5-2.1-1.4-1.1 2.1-0.5 0.1-1.8-0.6-1.5 1.5h-0.5l-1.5-1.5-1.6 1.5 1.6 1.8-1.7 2-2.2-1.8-1.3 1.5 0.1 0.5 1.5 1.4 0.6 0.1 1.3-0.5 1.2 1.5v0.5l-1.5 1 1.5 1.5 0.5 0.4 2-1.4 1.8 2.5 1.2 0.5 1.5 1.1 0.6 1.7-0.1 0.6-3.2 3.5-1.7-0.9-1.3 2.4-0.8 0.2-1.4-0.5-1.6 2.3h-0.6l-1.4-0.9-1.5 2.4-1.7-0.6-0.5 0.1-1.7 2.5-1.5-0.4-1.6 3.4-1.1 1c-1.8 1.4-2.1 1-3.6 0.1l-1.4 1.9-1 0.2c-1.9 0.2-1.6-0.2-2.8-1.6l-1.6 2.4-1.7 1-0.5-0.1-1.4-1.5-1.4 1.8h-0.5l-1.3-0.7-1.2 1.5-0.7 0.1c-2.3 0.1-1.5-0.2-3.1-1.1l-1.8 1.5-0.6-0.1-1.2-0.4-2.3 0.4-1.4-0.9-2 0.9-1.6-0.4c-2.2-0.1-1.7 0.6-3.7 0.6h-1.3l-1.9 1.4-1.6-0.5-0.8 0.1-1.7 2.1v1.2l0.7 1.5 0.1 1-0.4 1.3 0.7 1.4v0.9c-0.3 1.9 0.2 2.4 0 3.6l-0.3 1v4.3l0.3 2.2v5.3l-0.2 0.2 0.2 1.1v6.4l-0.8 2.3 0.1 4.5v0.1h4.7v-9.6l-0.3-1.4v-15.4l-0.2-0.5 0.2-1.1 0.4-0.9v-6.2l0.3-0.7 0.7-0.5 4.1 0.8c1.5 0.1 4 0.6 5.4 0.6 2.6-0.1 5.8-0.2 6.8-0.4l3.1-0.5 0.4 0.4c2.7-0.4 4.2-0.9 7.5-1.1 1.6-0.3 3.2-1.5 4-1.5h1.1l5-1.9 6.4-2.1 0.1-0.1h-0.1l1-0.3 9-6.2 6.6-5.8c2.1-1.5 3.4-3.6 4.2-4.6l1.9-2.1 2.8-5.5c1-0.8 0.6-3.3 2-4.5 0-2.2 0.7-4.4 0.7-4.5l-0.5-2.8 0.3-0.7 3-0.5 0.1-0.4c-0.1-1.1-0.8-2.5-1.1-3.4m-128.3-60.1-0.8-1 0.6-3h0.5l0.4 0.9 0.1 2.5-0.8 0.6zm108.5 52.7c-0.5-3.3-0.2-5.7-5.7-12.2l-1.2-1c0.4-0.3 7.4-3.5 8.2-3.5 0.7 0 1.7 2.6 1.8 3.6l0.2 3.8c0 0.2-2.7 9.7-3.3 9.3m-29.7 28.8-0.2-1.3-2.2 0.3 0.9 1.1-1.8 0.8h-0.5c-1-2.3-2.9-2-7.2-4.2h-1.4c1.1 0.9 3.1 1.8 4.4 2.2l-0.2 1.5c-1.6 0.2-8.3-2-10.8-5.2l1.1-1.3-0.9-1.5-1.2 1.7c-0.7-0.4-2-3-1.9-3.5l2.4-0.2v-0.3l-1.2-3.7-1.1 1.2-1-0.1c-0.4-1.3-0.4-4.9 0-5.1l1 1.5 0.1-3.4 1.5-3.1c-0.3-1.5 3.4-5.9 4-6.4h0.9l1-1 1.8-2.5 1.1-0.9 0.7-0.4h0.1 0.1l0.5-0.1 0.2 1.9 2.6-2-1.4-1c1.6-1.4 6.3-2.4 7.2-2 0.5 0.6 0.7 1.5 1.2 1.6l1.9 0.4-1.2-1.6 1-1c5 1 10.6 4.6 13.8 11.6h-2.3l1.5 4.4h-0.3l0.3 1.6 0.5-0.9-0.7-1.4 1-1.7 0.8 0.6c0.9 1.4 0.7 6.4 0.2 7.9l-0.3 2.1-0.4 0.8-1-0.5-0.6 1.6 0.8 0.6c-3 5.6-9.7 9-14.8 10.9m40.8-3.6c-1-0.3-5.7-5-5.7-5 0.6-1 3.1-3 3.9-3.8l6-5.5 0.7 0.5c0.4 0.8 0 3.8 0 4l-1.7 4.1-2.8 5.7z"/>
  <path class="cls-1" d="m72.3 84.6c0 1.5 1.6 3 3.7 3 2.1 0.1 3.7-1.4 3.7-3 0-1.5-1.6-2.9-3.7-2.9-1.9 0-3.7 1.5-3.7 2.9m18.4-2.9c-1.3 0-3.5 1.4-3.5 2.9 0 2.4 2.3 2.8 3.3 3.4l0.4-0.3c1.7 0 3.6-1.1 3.6-3 0-1.5-1.4-2.7-2.6-3v-1.2l-0.5 0.1-0.7 1.1zm-16.9 15.8c-1.7 0-2.6-1.9-1.1-2.9 2.4-1.9 5.7-3 9.7-3 4.3 0 8.5 2.3 11.5 6.4 0.7 1 2 2.6 0 3.7-2 0.7-2.5-2.3-4.8-4.2-2.2-1.8-4.6-2.9-6.9-2.9-3 0-5.7 1.1-8.1 2.8l-0.3 0.1z"/>
</svg>
